<svg width="57" height="56" viewBox="0 0 57 56" fill="none" xmlns="http://www.w3.org/2000/svg">
<path d="M45.9998 29.1668C45.9998 25.9468 48.6132 23.3335 51.8332 23.3335V21.0002C51.8332 11.6668 49.4998 9.3335 40.1665 9.3335H16.8332C7.49984 9.3335 5.1665 11.6668 5.1665 21.0002V22.1668C8.3865 22.1668 10.9998 24.7802 10.9998 28.0002C10.9998 31.2202 8.3865 33.8335 5.1665 33.8335V35.0002C5.1665 44.3335 7.49984 46.6668 16.8332 46.6668H40.1665C49.4998 46.6668 51.8332 44.3335 51.8332 35.0002C48.6132 35.0002 45.9998 32.3868 45.9998 29.1668Z" stroke="#stroke" stroke-width="#stroke-width" stroke-linecap="round" stroke-linejoin="round"/>
<path d="M23.8335 9.3335L23.8335 46.6668" stroke="#stroke" stroke-width="#stroke-width" stroke-linecap="round" stroke-linejoin="round" stroke-dasharray="5 5"/>
</svg>
