<svg width="25" height="25" viewBox="0 0 25 25" fill="none" xmlns="http://www.w3.org/2000/svg">
<path d="M20.6902 14.5598L19.5602 12.6798C19.3102 12.2698 19.0902 11.4798 19.0902 10.9998V9.1298C19.0902 5.4998 16.1402 2.5498 12.5202 2.5498C8.8902 2.5598 5.9402 5.4998 5.9402 9.1298V10.9898C5.9402 11.4698 5.7202 12.2598 5.4802 12.6698L4.3502 14.5498C3.9202 15.2798 3.8202 16.1098 4.0902 16.8298C4.3602 17.5598 4.9702 18.1398 5.7702 18.3998C6.8502 18.7598 7.9402 19.0198 9.0502 19.2098C9.1602 19.2298 9.2702 19.2398 9.3802 19.2598C9.5202 19.2798 9.6702 19.2998 9.8202 19.3198C10.0802 19.3598 10.3402 19.3898 10.6102 19.4098C11.2402 19.4698 11.8802 19.4998 12.5202 19.4998C13.1502 19.4998 13.7802 19.4698 14.4002 19.4098C14.6302 19.3898 14.8602 19.3698 15.0802 19.3398C15.2602 19.3198 15.4402 19.2998 15.6202 19.2698C15.7302 19.2598 15.8402 19.2398 15.9502 19.2198C17.0702 19.0398 18.1802 18.7598 19.2602 18.3998C20.0302 18.1398 20.6202 17.5598 20.9002 16.8198C21.1802 16.0698 21.1002 15.2498 20.6902 14.5598ZM13.2502 10.4998C13.2502 10.9198 12.9102 11.2598 12.4902 11.2598C12.0702 11.2598 11.7302 10.9198 11.7302 10.4998V7.39981C11.7302 6.9798 12.0702 6.6398 12.4902 6.6398C12.9102 6.6398 13.2502 6.9798 13.2502 7.39981V10.4998Z" fill="#fill"/>
<path d="M15.3302 20.51C14.9102 21.67 13.8002 22.5 12.5002 22.5C11.7102 22.5 10.9302 22.18 10.3802 21.61C10.0602 21.31 9.82018 20.91 9.68018 20.5C9.81018 20.52 9.94018 20.53 10.0802 20.55C10.3102 20.58 10.5502 20.61 10.7902 20.63C11.3602 20.68 11.9402 20.71 12.5202 20.71C13.0902 20.71 13.6602 20.68 14.2202 20.63C14.4302 20.61 14.6402 20.6 14.8402 20.57C15.0002 20.55 15.1602 20.53 15.3302 20.51Z" fill="#fill"/>
</svg>
