<svg width="50" height="52" viewBox="0 0 50 52" fill="none" xmlns="http://www.w3.org/2000/svg">
<ellipse cx="25" cy="26" rx="25" ry="26" fill="#fill" fill-opacity="0.2"/>
<g clip-path="url(#clip0_2138_2750)">
<path fill-rule="evenodd" clip-rule="evenodd" d="M20.095 20.0752L20.2138 20.1789L30.8213 30.7852C30.9603 30.924 31.0646 31.0938 31.1258 31.2805C31.1869 31.4673 31.2032 31.6658 31.1732 31.86C31.1433 32.0543 31.0679 32.2387 30.9534 32.3983C30.8388 32.558 30.6882 32.6884 30.5138 32.7789L30.3688 32.8414L17.3875 37.6252C14.9475 38.5252 12.5713 36.2314 13.3125 33.7952L13.375 33.6127L18.1575 20.6314C18.2207 20.4595 18.321 20.3035 18.4512 20.1746C18.5814 20.0457 18.7383 19.9469 18.9109 19.8854C19.0834 19.8239 19.2674 19.801 19.4498 19.8185C19.6322 19.8359 19.8085 19.8933 19.9663 19.9864L20.095 20.0752ZM19.8275 23.3277L15.7213 34.4777C15.6831 34.5814 15.6731 34.6934 15.6923 34.8023C15.7116 34.9111 15.7593 35.0129 15.8307 35.0973C15.9022 35.1817 15.9947 35.2456 16.0988 35.2825C16.203 35.3195 16.3151 35.3282 16.4238 35.3077L16.5238 35.2789L27.6713 31.1714L19.8275 23.3277ZM31.3838 25.5052C32.5225 25.5652 34.0838 25.8052 35.4413 26.6202C35.7165 26.7833 35.9186 27.0458 36.0061 27.3535C36.0936 27.6612 36.0598 27.9908 35.9116 28.2744C35.7635 28.5579 35.5122 28.7738 35.2096 28.8777C34.907 28.9816 34.5761 28.9654 34.285 28.8327L34.155 28.7639C33.3025 28.2514 32.2125 28.0514 31.2525 28.0014C30.857 27.9785 30.4604 27.9802 30.065 28.0064L29.67 28.0452C29.3439 28.0872 29.0144 27.9992 28.7528 27.8C28.4912 27.6008 28.3186 27.3066 28.2724 26.9811C28.2262 26.6556 28.3101 26.3249 28.506 26.0609C28.7018 25.7968 28.9938 25.6205 29.3188 25.5702C30.0034 25.4817 30.6949 25.4595 31.3838 25.5039M33.915 22.0214C34.2335 22.0221 34.5397 22.1443 34.7712 22.3631C35.0026 22.5819 35.1418 22.8808 35.1603 23.1988C35.1788 23.5167 35.0752 23.8298 34.8707 24.0739C34.6663 24.3181 34.3763 24.475 34.06 24.5127L33.915 24.5214H33.03C32.7115 24.5207 32.4053 24.3985 32.1739 24.1797C31.9424 23.9609 31.8032 23.662 31.7847 23.344C31.7662 23.0261 31.8698 22.7131 32.0743 22.4689C32.2788 22.2247 32.5687 22.0678 32.885 22.0302L33.03 22.0214H33.915ZM29.9375 21.0627C30.1527 21.2779 30.282 21.5643 30.3011 21.8681C30.3202 22.1718 30.2278 22.4722 30.0413 22.7127L29.9375 22.8302L28.6125 24.1564C28.3881 24.383 28.0855 24.5152 27.7668 24.526C27.4481 24.5368 27.1373 24.4254 26.898 24.2146C26.6588 24.0037 26.5091 23.7094 26.4798 23.3919C26.4504 23.0743 26.5435 22.7576 26.74 22.5064L26.8438 22.3889L28.1688 21.0639C28.2848 20.9477 28.4227 20.8555 28.5745 20.7926C28.7262 20.7297 28.8889 20.6973 29.0531 20.6973C29.2174 20.6973 29.3801 20.7297 29.5318 20.7926C29.6836 20.8555 29.8214 20.9464 29.9375 21.0627ZM26.7038 14.4814C27.2638 16.1639 26.9638 18.0064 26.6138 19.2939C26.4034 20.0966 26.1145 20.8766 25.7513 21.6227C25.6032 21.9194 25.3434 22.1451 25.0289 22.2503C24.7145 22.3554 24.3711 22.3313 24.0744 22.1833C23.7777 22.0353 23.5519 21.7754 23.4468 21.461C23.3416 21.1465 23.3657 20.8031 23.5138 20.5064C23.8036 19.9071 24.0339 19.2808 24.2013 18.6364C24.485 17.5964 24.6275 16.4677 24.4088 15.5427L24.3325 15.2727C24.278 15.1163 24.2552 14.9507 24.2652 14.7855C24.2752 14.6203 24.318 14.4587 24.391 14.3101C24.464 14.1615 24.5658 14.0289 24.6905 13.92C24.8151 13.8111 24.9602 13.728 25.1172 13.6756C25.2743 13.6232 25.4401 13.6025 25.6052 13.6147C25.7703 13.627 25.9314 13.6719 26.0789 13.7468C26.2265 13.8218 26.3578 13.9253 26.465 14.0514C26.5723 14.1775 26.6534 14.3237 26.7038 14.4814ZM33.4725 17.5289C33.7068 17.7633 33.8385 18.0812 33.8385 18.4127C33.8385 18.7441 33.7068 19.062 33.4725 19.2964L32.5888 20.1802C32.4734 20.2995 32.3355 20.3948 32.183 20.4603C32.0305 20.5258 31.8665 20.5603 31.7005 20.5617C31.5345 20.5632 31.3699 20.5315 31.2163 20.4687C31.0627 20.4058 30.9231 20.313 30.8058 20.1957C30.6884 20.0783 30.5956 19.9387 30.5327 19.7851C30.4699 19.6315 30.4383 19.4669 30.4397 19.3009C30.4411 19.1349 30.4756 18.9709 30.5411 18.8184C30.6066 18.6659 30.7019 18.528 30.8213 18.4127L31.705 17.5289C31.9394 17.2946 32.2573 17.1629 32.5888 17.1629C32.9202 17.1629 33.2381 17.2946 33.4725 17.5289Z" fill="#fill"/>
</g>
<defs>
<clipPath id="clip0_2138_2750">
<rect width="30" height="30" fill="white" transform="translate(10 11)"/>
</clipPath>
</defs>
</svg>
