<svg width="25" height="25" viewBox="0 0 25 25" fill="none" xmlns="http://www.w3.org/2000/svg">
<path d="M22.8601 8.77L22.5701 6C22.1501 2.98 20.7801 1.75 17.8501 1.75H15.4901H14.0101H10.9701H9.49014H7.09014C4.15014 1.75 2.79014 2.98 2.36014 6.03L2.09014 8.78C1.99014 9.85 2.28014 10.89 2.91014 11.7C3.67014 12.69 4.84014 13.25 6.14014 13.25C7.40014 13.25 8.61014 12.62 9.37014 11.61C10.0501 12.62 11.2101 13.25 12.5001 13.25C13.7901 13.25 14.9201 12.65 15.6101 11.65C16.3801 12.64 17.5701 13.25 18.8101 13.25C20.1401 13.25 21.3401 12.66 22.0901 11.62C22.6901 10.82 22.9601 9.81 22.8601 8.77Z" fill="#fill"/>
<path d="M11.8501 17.16C10.5801 17.29 9.62012 18.37 9.62012 19.65V22.39C9.62012 22.66 9.84012 22.88 10.1101 22.88H14.8801C15.1501 22.88 15.3701 22.66 15.3701 22.39V20C15.3801 17.91 14.1501 16.92 11.8501 17.16Z" fill="#fill"/>
<path d="M21.8699 14.9001V17.8801C21.8699 20.6401 19.6299 22.8801 16.8699 22.8801C16.5999 22.8801 16.3799 22.6601 16.3799 22.3901V20.0001C16.3799 18.7201 15.9899 17.7201 15.2299 17.0401C14.5599 16.4301 13.6499 16.1301 12.5199 16.1301C12.2699 16.1301 12.0199 16.1401 11.7499 16.1701C9.96988 16.3501 8.61988 17.8501 8.61988 19.6501V22.3901C8.61988 22.6601 8.39988 22.8801 8.12988 22.8801C5.36988 22.8801 3.12988 20.6401 3.12988 17.8801V14.9201C3.12988 14.2201 3.81988 13.7501 4.46988 13.9801C4.73988 14.0701 5.00988 14.1401 5.28988 14.1801C5.40988 14.2001 5.53988 14.2201 5.65988 14.2201C5.81988 14.2401 5.97988 14.2501 6.13988 14.2501C7.29988 14.2501 8.43988 13.8201 9.33988 13.0801C10.1999 13.8201 11.3199 14.2501 12.4999 14.2501C13.6899 14.2501 14.7899 13.8401 15.6499 13.1001C16.5499 13.8301 17.6699 14.2501 18.8099 14.2501C18.9899 14.2501 19.1699 14.2401 19.3399 14.2201C19.4599 14.2101 19.5699 14.2001 19.6799 14.1801C19.9899 14.1401 20.2699 14.0501 20.5499 13.9601C21.1999 13.7401 21.8699 14.2201 21.8699 14.9001Z" fill="#fill"/>
</svg>
