<svg width="30" height="30" viewBox="0 0 30 30" fill="none" xmlns="http://www.w3.org/2000/svg">
<path fill-rule="evenodd" clip-rule="evenodd" d="M10.095 9.07516L10.2138 9.17891L20.8213 19.7852C20.9603 19.924 21.0646 20.0938 21.1258 20.2805C21.1869 20.4673 21.2032 20.6658 21.1732 20.86C21.1433 21.0543 21.0679 21.2387 20.9534 21.3983C20.8388 21.558 20.6882 21.6884 20.5138 21.7789L20.3688 21.8414L7.38751 26.6252C4.94751 27.5252 2.57126 25.2314 3.31251 22.7952L3.37501 22.6127L8.15751 9.63141C8.22074 9.45945 8.32099 9.3035 8.45117 9.17458C8.58136 9.04567 8.73829 8.94695 8.91086 8.88541C9.08343 8.82387 9.26742 8.80102 9.4498 8.81847C9.63218 8.83593 9.80849 8.89326 9.96626 8.98641L10.095 9.07516ZM9.82751 12.3277L5.72126 23.4777C5.68308 23.5814 5.6731 23.6934 5.69234 23.8023C5.71157 23.9111 5.75933 24.0129 5.83074 24.0973C5.90215 24.1817 5.99467 24.2456 6.09884 24.2825C6.20302 24.3195 6.31514 24.3282 6.42376 24.3077L6.52376 24.2789L17.6713 20.1714L9.82751 12.3277ZM21.3838 14.5052C22.5225 14.5652 24.0838 14.8052 25.4413 15.6202C25.7165 15.7833 25.9186 16.0458 26.0061 16.3535C26.0936 16.6612 26.0598 16.9908 25.9116 17.2744C25.7635 17.5579 25.5122 17.7738 25.2096 17.8777C24.907 17.9816 24.5761 17.9654 24.285 17.8327L24.155 17.7639C23.3025 17.2514 22.2125 17.0514 21.2525 17.0014C20.857 16.9785 20.4604 16.9802 20.065 17.0064L19.67 17.0452C19.3439 17.0872 19.0144 16.9992 18.7528 16.8C18.4912 16.6008 18.3186 16.3066 18.2724 15.9811C18.2262 15.6556 18.3101 15.3249 18.506 15.0609C18.7018 14.7968 18.9938 14.6205 19.3188 14.5702C20.0034 14.4817 20.6949 14.4595 21.3838 14.5039M23.915 11.0214C24.2335 11.0221 24.5397 11.1443 24.7712 11.3631C25.0026 11.5819 25.1418 11.8808 25.1603 12.1988C25.1788 12.5167 25.0752 12.8298 24.8707 13.0739C24.6663 13.3181 24.3763 13.475 24.06 13.5127L23.915 13.5214H23.03C22.7115 13.5207 22.4053 13.3985 22.1739 13.1797C21.9424 12.9609 21.8032 12.662 21.7847 12.344C21.7662 12.0261 21.8698 11.7131 22.0743 11.4689C22.2788 11.2247 22.5687 11.0678 22.885 11.0302L23.03 11.0214H23.915ZM19.9375 10.0627C20.1527 10.2779 20.282 10.5643 20.3011 10.8681C20.3202 11.1718 20.2278 11.4722 20.0413 11.7127L19.9375 11.8302L18.6125 13.1564C18.3881 13.383 18.0855 13.5152 17.7668 13.526C17.4481 13.5368 17.1373 13.4254 16.898 13.2146C16.6588 13.0037 16.5091 12.7094 16.4798 12.3919C16.4504 12.0743 16.5435 11.7576 16.74 11.5064L16.8438 11.3889L18.1688 10.0639C18.2848 9.94769 18.4227 9.85549 18.5745 9.79259C18.7262 9.72968 18.8889 9.6973 19.0531 9.6973C19.2174 9.6973 19.3801 9.72968 19.5318 9.79259C19.6836 9.85549 19.8214 9.94644 19.9375 10.0627ZM16.7038 3.48141C17.2638 5.16391 16.9638 7.00641 16.6138 8.29391C16.4034 9.0966 16.1145 9.87661 15.7513 10.6227C15.6032 10.9194 15.3434 11.1451 15.0289 11.2503C14.7145 11.3554 14.3711 11.3313 14.0744 11.1833C13.7777 11.0353 13.5519 10.7754 13.4468 10.461C13.3416 10.1465 13.3657 9.80312 13.5138 9.50641C13.8036 8.9071 14.0339 8.28076 14.2013 7.63641C14.485 6.59641 14.6275 5.46766 14.4088 4.54266L14.3325 4.27266C14.278 4.11634 14.2552 3.95075 14.2652 3.7855C14.2752 3.62026 14.318 3.45866 14.391 3.31008C14.464 3.16151 14.5658 3.02891 14.6905 2.91999C14.8151 2.81107 14.9602 2.728 15.1172 2.6756C15.2743 2.6232 15.4401 2.60251 15.6052 2.61474C15.7703 2.62697 15.9314 2.67188 16.0789 2.74684C16.2265 2.82181 16.3578 2.92535 16.465 3.05145C16.5723 3.17755 16.6534 3.3237 16.7038 3.48141ZM23.4725 6.52891C23.7068 6.76332 23.8385 7.08121 23.8385 7.41266C23.8385 7.74412 23.7068 8.062 23.4725 8.29641L22.5888 9.18016C22.4734 9.29955 22.3355 9.39478 22.183 9.46029C22.0305 9.5258 21.8665 9.56028 21.7005 9.56173C21.5345 9.56317 21.3699 9.53154 21.2163 9.46869C21.0627 9.40584 20.9231 9.31302 20.8058 9.19566C20.6884 9.07829 20.5956 8.93872 20.5327 8.7851C20.4699 8.63148 20.4383 8.46688 20.4397 8.30091C20.4411 8.13494 20.4756 7.97091 20.5411 7.81841C20.6066 7.6659 20.7019 7.52797 20.8213 7.41266L21.705 6.52891C21.9394 6.29457 22.2573 6.16293 22.5888 6.16293C22.9202 6.16293 23.2381 6.29457 23.4725 6.52891Z" fill="#84D364"/>
</svg>
