<svg width="25" height="25" viewBox="0 0 25 25" fill="none" xmlns="http://www.w3.org/2000/svg">
<path d="M20.5402 7.32L14.7802 3.29C13.2102 2.19 10.8002 2.25 9.29023 3.42L4.28023 7.33C3.28023 8.11 2.49023 9.71 2.49023 10.97V17.87C2.49023 20.42 4.56023 22.5 7.11023 22.5H17.8902C20.4402 22.5 22.5102 20.43 22.5102 17.88V11.1C22.5102 9.75 21.6402 8.09 20.5402 7.32ZM13.2502 18.5C13.2502 18.91 12.9102 19.25 12.5002 19.25C12.0902 19.25 11.7502 18.91 11.7502 18.5V15.5C11.7502 15.09 12.0902 14.75 12.5002 14.75C12.9102 14.75 13.2502 15.09 13.2502 15.5V18.5Z" fill="#fill"/>
</svg>
