<svg width="32" height="33" viewBox="0 0 32 33" fill="none" xmlns="http://www.w3.org/2000/svg">
<path d="M29.2398 9.51343L24.7465 27.5535C24.4265 28.9001 23.2265 29.8334 21.8399 29.8334H4.31985C2.30651 29.8334 0.866535 27.86 1.46653 25.9267L7.07986 7.90015C7.46652 6.64681 8.62654 5.78003 9.93321 5.78003H26.3332C27.5999 5.78003 28.6532 6.55337 29.0932 7.62004C29.3465 8.19337 29.3998 8.84676 29.2398 9.51343Z" stroke="#stroke" stroke-width="#stroke-width" stroke-miterlimit="10"/>
<path d="M21.3335 29.8333H27.7068C29.4268 29.8333 30.7735 28.38 30.6535 26.66L29.3335 8.5" stroke="#stroke" stroke-width="#stroke-width" stroke-miterlimit="10" stroke-linecap="round" stroke-linejoin="round"/>
<path d="M12.9067 9.00676L14.2934 3.24683" stroke="#stroke" stroke-width="#stroke-width" stroke-miterlimit="10" stroke-linecap="round" stroke-linejoin="round"/>
<path d="M21.8398 9.02002L23.0932 3.2334" stroke="#stroke" stroke-width="#stroke-width" stroke-miterlimit="10" stroke-linecap="round" stroke-linejoin="round"/>
<path d="M10.2666 16.5H20.9333" stroke="#stroke" stroke-width="#stroke-width" stroke-miterlimit="10" stroke-linecap="round" stroke-linejoin="round"/>
<path d="M8.93359 21.8333H19.6003" stroke="#stroke" stroke-width="#stroke-width" stroke-miterlimit="10" stroke-linecap="round" stroke-linejoin="round"/>
</svg>
