<svg width="57" height="56" viewBox="0 0 57 56" fill="none" xmlns="http://www.w3.org/2000/svg">
<path d="M5.1665 20.9998V15.1665C5.1665 9.3565 9.8565 4.6665 15.6665 4.6665H21.4998" stroke="#stroke" stroke-width="#stroke-width" stroke-linecap="round" stroke-linejoin="round"/>
<path d="M35.5 4.6665H41.3333C47.1433 4.6665 51.8333 9.3565 51.8333 15.1665V20.9998" stroke="#stroke" stroke-width="#stroke-width" stroke-linecap="round" stroke-linejoin="round"/>
<path d="M51.8335 37.3335V40.8335C51.8335 46.6435 47.1435 51.3335 41.3335 51.3335H37.8335" stroke="#stroke" stroke-width="#stroke-width" stroke-linecap="round" stroke-linejoin="round"/>
<path d="M21.4998 51.3333H15.6665C9.8565 51.3333 5.1665 46.6433 5.1665 40.8333V35" stroke="#stroke" stroke-width="#stroke-width" stroke-linecap="round" stroke-linejoin="round"/>
<path d="M25.0002 16.3335V21.0002C25.0002 23.3335 23.8335 24.5002 21.5002 24.5002H16.8335C14.5002 24.5002 13.3335 23.3335 13.3335 21.0002V16.3335C13.3335 14.0002 14.5002 12.8335 16.8335 12.8335H21.5002C23.8335 12.8335 25.0002 14.0002 25.0002 16.3335Z" stroke="#stroke" stroke-width="#stroke-width" stroke-linecap="round" stroke-linejoin="round"/>
<path d="M43.6667 16.3335V21.0002C43.6667 23.3335 42.5 24.5002 40.1667 24.5002H35.5C33.1667 24.5002 32 23.3335 32 21.0002V16.3335C32 14.0002 33.1667 12.8335 35.5 12.8335H40.1667C42.5 12.8335 43.6667 14.0002 43.6667 16.3335Z" stroke="#stroke" stroke-width="#stroke-width" stroke-linecap="round" stroke-linejoin="round"/>
<path d="M25.0002 35V39.6667C25.0002 42 23.8335 43.1667 21.5002 43.1667H16.8335C14.5002 43.1667 13.3335 42 13.3335 39.6667V35C13.3335 32.6667 14.5002 31.5 16.8335 31.5H21.5002C23.8335 31.5 25.0002 32.6667 25.0002 35Z" stroke="#stroke" stroke-width="#stroke-width" stroke-linecap="round" stroke-linejoin="round"/>
<path d="M43.6667 35V39.6667C43.6667 42 42.5 43.1667 40.1667 43.1667H35.5C33.1667 43.1667 32 42 32 39.6667V35C32 32.6667 33.1667 31.5 35.5 31.5H40.1667C42.5 31.5 43.6667 32.6667 43.6667 35Z" stroke="#stroke" stroke-width="#stroke-width" stroke-linecap="round" stroke-linejoin="round"/>
</svg>
