<svg width="32" height="33" viewBox="0 0 32 33" fill="none" xmlns="http://www.w3.org/2000/svg">
<path d="M2.6665 3.16675H4.98651C6.42651 3.16675 7.55984 4.40675 7.43984 5.83341L6.33317 19.1134C6.1465 21.2867 7.86649 23.1534 10.0532 23.1534H24.2532C26.1732 23.1534 27.8532 21.5801 27.9998 19.6734L28.7198 9.67342C28.8798 7.46009 27.1998 5.66007 24.9732 5.66007H7.75985" stroke="#stroke" stroke-width="#stroke-width" stroke-miterlimit="10" stroke-linecap="round" stroke-linejoin="round"/>
<path d="M21.6667 29.8333C22.5871 29.8333 23.3333 29.0871 23.3333 28.1667C23.3333 27.2462 22.5871 26.5 21.6667 26.5C20.7462 26.5 20 27.2462 20 28.1667C20 29.0871 20.7462 29.8333 21.6667 29.8333Z" stroke="#stroke" stroke-width="#stroke-width" stroke-miterlimit="10" stroke-linecap="round" stroke-linejoin="round"/>
<path d="M11.0002 29.8333C11.9206 29.8333 12.6668 29.0871 12.6668 28.1667C12.6668 27.2462 11.9206 26.5 11.0002 26.5C10.0797 26.5 9.3335 27.2462 9.3335 28.1667C9.3335 29.0871 10.0797 29.8333 11.0002 29.8333Z" stroke="#stroke" stroke-width="#stroke-width" stroke-miterlimit="10" stroke-linecap="round" stroke-linejoin="round"/>
<path d="M12 11.1667H28" stroke="#stroke" stroke-width="#stroke-width" stroke-miterlimit="10" stroke-linecap="round" stroke-linejoin="round"/>
</svg>
