<svg width="305" height="130" viewBox="0 0 305 130" fill="none" xmlns="http://www.w3.org/2000/svg">
<g clip-path="url(#clip0_3326_3864)">
<path fill-rule="evenodd" clip-rule="evenodd" d="M0 8C0 3.58172 3.80636 0 8.50174 0H98.3556V5.82653C98.3556 6.75076 99.1518 7.5 100.134 7.5C101.116 7.5 101.912 6.75076 101.912 5.82653V0H305V7.49951C303.036 7.49971 301.443 9.73821 301.443 12.4995C301.443 15.2608 303.036 17.4993 305 17.4995V22.4992C303.036 22.4994 301.443 24.7379 301.443 27.4993C301.443 30.2606 303.036 32.4991 305 32.4993V37.499C303.036 37.4992 301.443 39.7377 301.443 42.499C301.443 45.2603 303.036 47.4988 305 47.499V52.4999C303.036 52.5001 301.443 54.7386 301.443 57.4999C301.443 60.2612 303.036 62.4997 305 62.4999V67.4996C303.036 67.4998 301.443 69.7383 301.443 72.4996C301.443 75.2609 303.036 77.4994 305 77.4996V82.4993C303.036 82.4995 301.443 84.738 301.443 87.4993C301.443 90.2606 303.036 92.4991 305 92.4993V97.4991C303.036 97.4993 301.443 99.7378 301.443 102.499C301.443 105.26 303.036 107.499 305 107.499V112.5C303.036 112.5 301.443 114.739 301.443 117.5C301.443 120.261 303.036 122.5 305 122.5V130H101.912V124.173C101.912 123.249 101.116 122.5 100.134 122.5C99.1518 122.5 98.3556 123.249 98.3556 124.173V130H8.50175C3.80637 130 0 126.418 0 122V8ZM99.8955 67.4633V73.1144C99.8955 73.4289 100.166 73.6838 100.501 73.6838C100.835 73.6838 101.106 73.4289 101.106 73.1144V67.4633C101.106 67.1488 100.835 66.8939 100.501 66.8939C100.166 66.8939 99.8955 67.1488 99.8955 67.4633ZM99.8955 84.6944V79.0432C99.8955 78.7288 100.166 78.4738 100.501 78.4738C100.835 78.4738 101.106 78.7288 101.106 79.0432V84.6944C101.106 85.0088 100.835 85.2638 100.501 85.2638C100.166 85.2638 99.8955 85.0088 99.8955 84.6944ZM99.8955 90.622V96.2732C99.8955 96.5876 100.166 96.8426 100.501 96.8426C100.835 96.8426 101.106 96.5876 101.106 96.2732V90.622C101.106 90.3076 100.835 90.0526 100.501 90.0526C100.166 90.0526 99.8955 90.3076 99.8955 90.622ZM99.8955 119.431V113.779C99.8955 113.465 100.166 113.21 100.501 113.21C100.835 113.21 101.106 113.465 101.106 113.779V119.431C101.106 119.745 100.835 120 100.501 120C100.166 120 99.8955 119.745 99.8955 119.431ZM99.8955 102.202V107.853C99.8955 108.168 100.166 108.423 100.501 108.423C100.835 108.423 101.106 108.168 101.106 107.853V102.202C101.106 101.888 100.835 101.633 100.501 101.633C100.166 101.633 99.8955 101.888 99.8955 102.202ZM99.8955 38.378V32.7268C99.8955 32.4123 100.166 32.1574 100.501 32.1574C100.835 32.1574 101.106 32.4123 101.106 32.7268V38.378C101.106 38.6925 100.835 38.9474 100.501 38.9474C100.166 38.9474 99.8955 38.6925 99.8955 38.378ZM99.8955 21.1515V26.8026C99.8955 27.1171 100.166 27.372 100.501 27.372C100.835 27.372 101.106 27.1171 101.106 26.8026V21.1515C101.106 20.837 100.835 20.5821 100.501 20.5821C100.166 20.5821 99.8955 20.837 99.8955 21.1515ZM99.8955 15.2204V9.56927C99.8955 9.2548 100.166 8.99987 100.501 8.99987C100.835 8.99987 101.106 9.2548 101.106 9.56927V15.2204C101.106 15.5349 100.835 15.7898 100.501 15.7898C100.166 15.7898 99.8955 15.5349 99.8955 15.2204ZM99.8955 44.3068V49.9579C99.8955 50.2724 100.166 50.5273 100.501 50.5273C100.835 50.5273 101.106 50.2724 101.106 49.9579V44.3068C101.106 43.9923 100.835 43.7374 100.501 43.7374C100.166 43.7374 99.8955 43.9923 99.8955 44.3068ZM99.8955 61.5367V55.8879C99.8955 55.5735 100.166 55.3185 100.501 55.3185C100.835 55.3185 101.106 55.5735 101.106 55.8879V61.5367C101.106 61.8512 100.835 62.1061 100.501 62.1061C100.166 62.1061 99.8955 61.8512 99.8955 61.5367Z" fill="#CB6CE6"/>
<path d="M79.7038 130C79.7038 123.104 76.7367 116.491 71.4553 111.615C66.1739 106.739 59.0108 104 51.5418 104C44.0728 104 36.9096 106.739 31.6283 111.615C26.3469 116.491 23.3798 123.104 23.3798 130H51.5418H79.7038Z" fill="#84D364"/>
</g>
<defs>
<clipPath id="clip0_3326_3864">
<rect width="305" height="130" fill="white"/>
</clipPath>
</defs>
</svg>
