<svg width="25" height="25" viewBox="0 0 25 25" fill="none" xmlns="http://www.w3.org/2000/svg">
<path d="M22.3335 11.25C22.7435 11.25 23.0835 10.91 23.0835 10.5V9.5C23.0835 5.09 21.7435 3.75 17.3335 3.75H11.0835V6C11.0835 6.41 10.7435 6.75 10.3335 6.75C9.9235 6.75 9.5835 6.41 9.5835 6V3.75H7.3335C2.9235 3.75 1.5835 5.09 1.5835 9.5V10C1.5835 10.41 1.9235 10.75 2.3335 10.75C3.2935 10.75 4.0835 11.54 4.0835 12.5C4.0835 13.46 3.2935 14.25 2.3335 14.25C1.9235 14.25 1.5835 14.59 1.5835 15V15.5C1.5835 19.91 2.9235 21.25 7.3335 21.25H9.5835V19C9.5835 18.59 9.9235 18.25 10.3335 18.25C10.7435 18.25 11.0835 18.59 11.0835 19V21.25H17.3335C21.7435 21.25 23.0835 19.91 23.0835 15.5C23.0835 15.09 22.7435 14.75 22.3335 14.75C21.3735 14.75 20.5835 13.96 20.5835 13C20.5835 12.04 21.3735 11.25 22.3335 11.25ZM11.0835 14.67C11.0835 15.08 10.7435 15.42 10.3335 15.42C9.9235 15.42 9.5835 15.08 9.5835 14.67V10.33C9.5835 9.92 9.9235 9.58 10.3335 9.58C10.7435 9.58 11.0835 9.92 11.0835 10.33V14.67Z" fill="#fill"/>
</svg>
