<svg fill="none" viewBox="0 0 305 130" xmlns="http://www.w3.org/2000/svg">
<mask id="path-1-inside-1_3511_4361" fill="white">
<path fill-rule="evenodd" clip-rule="evenodd" d="M0 8C0 3.58172 3.58172 0 8 0H130V5.72157C130 6.70377 130.796 7.5 131.778 7.5C132.76 7.5 133.557 6.70377 133.557 5.72157V0H305L305 7.49951C303.036 7.49951 301.443 9.73809 301.443 12.4995C301.443 15.2609 303.036 17.4995 305 17.4995V22.4992C303.036 22.4992 301.443 24.7378 301.443 27.4993C301.443 30.2607 303.036 32.4993 305 32.4993V37.499C303.036 37.499 301.443 39.7376 301.443 42.499C301.443 45.2604 303.036 47.499 305 47.499V52.4999C303.036 52.4999 301.443 54.7384 301.443 57.4999C301.443 60.2613 303.036 62.4999 305 62.4999V67.4996C303.036 67.4996 301.443 69.7382 301.443 72.4996C301.443 75.261 303.036 77.4996 305 77.4996V82.4993C303.036 82.4993 301.443 84.7379 301.443 87.4993C301.443 90.2608 303.036 92.4993 305 92.4993V97.4991C303.036 97.4991 301.443 99.7376 301.443 102.499C301.443 105.26 303.036 107.499 305 107.499V112.5C303.036 112.5 301.443 114.739 301.443 117.5C301.443 120.261 303.036 122.5 305 122.5L305 130H133.557V124.278C133.557 123.296 132.76 122.5 131.778 122.5C130.796 122.5 130 123.296 130 124.278V130H8C3.58172 130 0 126.418 0 122V8ZM131.236 67.4202V73.1575C131.236 73.4482 131.472 73.6838 131.763 73.6838C132.053 73.6838 132.289 73.4482 132.289 73.1575V67.4202C132.289 67.1295 132.053 66.8939 131.763 66.8939C131.472 66.8939 131.236 67.1295 131.236 67.4202ZM131.236 84.7375V79.0001C131.236 78.7094 131.472 78.4738 131.763 78.4738C132.053 78.4738 132.289 78.7094 132.289 79.0001V84.7375C132.289 85.0281 132.053 85.2638 131.763 85.2638C131.472 85.2638 131.236 85.0281 131.236 84.7375ZM131.236 90.5789V96.3163C131.236 96.6069 131.472 96.8426 131.763 96.8426C132.053 96.8426 132.289 96.6069 132.289 96.3163V90.5789C132.289 90.2883 132.053 90.0526 131.763 90.0526C131.472 90.0526 131.236 90.2883 131.236 90.5789ZM131.236 119.474V113.736C131.236 113.446 131.472 113.21 131.763 113.21C132.053 113.21 132.289 113.446 132.289 113.736V119.474C132.289 119.764 132.053 120 131.763 120C131.472 120 131.236 119.764 131.236 119.474ZM131.236 102.159V107.896C131.236 108.187 131.472 108.423 131.763 108.423C132.053 108.423 132.289 108.187 132.289 107.896V102.159C132.289 101.868 132.053 101.633 131.763 101.633C131.472 101.633 131.236 101.868 131.236 102.159ZM131.236 38.4211V32.6837C131.236 32.393 131.472 32.1574 131.763 32.1574C132.053 32.1574 132.289 32.393 132.289 32.6837V38.4211C132.289 38.7118 132.053 38.9474 131.763 38.9474C131.472 38.9474 131.236 38.7118 131.236 38.4211ZM131.236 21.1083V26.8457C131.236 27.1364 131.472 27.372 131.763 27.372C132.053 27.372 132.289 27.1364 132.289 26.8457V21.1083C132.289 20.8177 132.053 20.5821 131.763 20.5821C131.472 20.5821 131.236 20.8177 131.236 21.1083ZM131.236 15.2635V9.52614C131.236 9.23549 131.472 8.99987 131.763 8.99987C132.053 8.99987 132.289 9.23549 132.289 9.52614V15.2635C132.289 15.5542 132.053 15.7898 131.763 15.7898C131.472 15.7898 131.236 15.5542 131.236 15.2635ZM131.236 44.2637V50.0011C131.236 50.2917 131.472 50.5273 131.763 50.5273C132.053 50.5273 132.289 50.2917 132.289 50.0011V44.2637C132.289 43.973 132.053 43.7374 131.763 43.7374C131.472 43.7374 131.236 43.973 131.236 44.2637ZM131.236 61.5799V55.8448C131.236 55.5541 131.472 55.3185 131.763 55.3185C132.053 55.3185 132.289 55.5541 132.289 55.8448V61.5799C132.289 61.8705 132.053 62.1061 131.763 62.1061C131.472 62.1061 131.236 61.8705 131.236 61.5799Z"/>
</mask>
<path fill-rule="evenodd" clip-rule="evenodd" d="M0 8C0 3.58172 3.58172 0 8 0H130V5.72157C130 6.70377 130.796 7.5 131.778 7.5C132.76 7.5 133.557 6.70377 133.557 5.72157V0H305L305 7.49951C303.036 7.49951 301.443 9.73809 301.443 12.4995C301.443 15.2609 303.036 17.4995 305 17.4995V22.4992C303.036 22.4992 301.443 24.7378 301.443 27.4993C301.443 30.2607 303.036 32.4993 305 32.4993V37.499C303.036 37.499 301.443 39.7376 301.443 42.499C301.443 45.2604 303.036 47.499 305 47.499V52.4999C303.036 52.4999 301.443 54.7384 301.443 57.4999C301.443 60.2613 303.036 62.4999 305 62.4999V67.4996C303.036 67.4996 301.443 69.7382 301.443 72.4996C301.443 75.261 303.036 77.4996 305 77.4996V82.4993C303.036 82.4993 301.443 84.7379 301.443 87.4993C301.443 90.2608 303.036 92.4993 305 92.4993V97.4991C303.036 97.4991 301.443 99.7376 301.443 102.499C301.443 105.26 303.036 107.499 305 107.499V112.5C303.036 112.5 301.443 114.739 301.443 117.5C301.443 120.261 303.036 122.5 305 122.5L305 130H133.557V124.278C133.557 123.296 132.76 122.5 131.778 122.5C130.796 122.5 130 123.296 130 124.278V130H8C3.58172 130 0 126.418 0 122V8ZM131.236 67.4202V73.1575C131.236 73.4482 131.472 73.6838 131.763 73.6838C132.053 73.6838 132.289 73.4482 132.289 73.1575V67.4202C132.289 67.1295 132.053 66.8939 131.763 66.8939C131.472 66.8939 131.236 67.1295 131.236 67.4202ZM131.236 84.7375V79.0001C131.236 78.7094 131.472 78.4738 131.763 78.4738C132.053 78.4738 132.289 78.7094 132.289 79.0001V84.7375C132.289 85.0281 132.053 85.2638 131.763 85.2638C131.472 85.2638 131.236 85.0281 131.236 84.7375ZM131.236 90.5789V96.3163C131.236 96.6069 131.472 96.8426 131.763 96.8426C132.053 96.8426 132.289 96.6069 132.289 96.3163V90.5789C132.289 90.2883 132.053 90.0526 131.763 90.0526C131.472 90.0526 131.236 90.2883 131.236 90.5789ZM131.236 119.474V113.736C131.236 113.446 131.472 113.21 131.763 113.21C132.053 113.21 132.289 113.446 132.289 113.736V119.474C132.289 119.764 132.053 120 131.763 120C131.472 120 131.236 119.764 131.236 119.474ZM131.236 102.159V107.896C131.236 108.187 131.472 108.423 131.763 108.423C132.053 108.423 132.289 108.187 132.289 107.896V102.159C132.289 101.868 132.053 101.633 131.763 101.633C131.472 101.633 131.236 101.868 131.236 102.159ZM131.236 38.4211V32.6837C131.236 32.393 131.472 32.1574 131.763 32.1574C132.053 32.1574 132.289 32.393 132.289 32.6837V38.4211C132.289 38.7118 132.053 38.9474 131.763 38.9474C131.472 38.9474 131.236 38.7118 131.236 38.4211ZM131.236 21.1083V26.8457C131.236 27.1364 131.472 27.372 131.763 27.372C132.053 27.372 132.289 27.1364 132.289 26.8457V21.1083C132.289 20.8177 132.053 20.5821 131.763 20.5821C131.472 20.5821 131.236 20.8177 131.236 21.1083ZM131.236 15.2635V9.52614C131.236 9.23549 131.472 8.99987 131.763 8.99987C132.053 8.99987 132.289 9.23549 132.289 9.52614V15.2635C132.289 15.5542 132.053 15.7898 131.763 15.7898C131.472 15.7898 131.236 15.5542 131.236 15.2635ZM131.236 44.2637V50.0011C131.236 50.2917 131.472 50.5273 131.763 50.5273C132.053 50.5273 132.289 50.2917 132.289 50.0011V44.2637C132.289 43.973 132.053 43.7374 131.763 43.7374C131.472 43.7374 131.236 43.973 131.236 44.2637ZM131.236 61.5799V55.8448C131.236 55.5541 131.472 55.3185 131.763 55.3185C132.053 55.3185 132.289 55.5541 132.289 55.8448V61.5799C132.289 61.8705 132.053 62.1061 131.763 62.1061C131.472 62.1061 131.236 61.8705 131.236 61.5799Z" fill="white" stroke="#E5E5E5" stroke-width="2" mask="url(#path-1-inside-1_3511_4361)"/>
</svg>
