<svg width="25" height="25" viewBox="0 0 25 25" fill="none" xmlns="http://www.w3.org/2000/svg">
  <path
    d="M19.8335 13C19.8335 11.62 20.9535 10.5 22.3335 10.5V9.5C22.3335 5.5 21.3335 4.5 17.3335 4.5H7.3335C3.3335 4.5 2.3335 5.5 2.3335 9.5V10C3.7135 10 4.8335 11.12 4.8335 12.5C4.8335 13.88 3.7135 15 2.3335 15V15.5C2.3335 19.5 3.3335 20.5 7.3335 20.5H17.3335C21.3335 20.5 22.3335 19.5 22.3335 15.5C20.9535 15.5 19.8335 14.38 19.8335 13Z"
    stroke="#stroke"
    stroke-width="#stroke-width"
    stroke-linecap="round"
    stroke-linejoin="round"
  />
  <path
    d="M10.3335 4.5L10.3335 20.5"
    stroke="#stroke"
    stroke-width="#stroke-width"
    stroke-linecap="round"
    stroke-linejoin="round"
    stroke-dasharray="5 5"
  />
</svg>
